# Blender 3.6.11
# www.blender.org
mtllib kame_house-stairs.mtl
o KH_Stairs-white
v 21.664589 49.542591 76.766640
v 21.664589 49.792591 76.766640
v 21.664589 49.792591 78.766640
v 21.664589 49.792595 54.766640
v 21.664589 49.792595 56.766640
v 21.664589 44.292595 54.766640
v 21.664589 49.542595 56.766640
v 21.664589 44.292591 78.766640
v 21.664589 44.292591 76.766640
v 21.664589 46.792591 76.766640
v 21.664589 44.292595 56.766640
v 21.664589 46.792595 56.766640
v 20.414597 49.542591 76.766640
v 17.664597 49.542591 76.766640
v 17.664597 47.892593 76.766640
v 17.081268 47.542591 76.766640
v 14.664597 47.542591 76.766640
v 14.664597 46.092590 76.766640
v 13.747929 45.542591 76.766640
v 11.664597 45.542591 76.766640
v 11.664597 44.292591 76.766640
v 20.414597 49.542595 56.766640
v 17.664597 47.892593 56.766640
v 17.664597 49.542595 56.766640
v 17.081268 47.542595 56.766640
v 14.664597 46.092594 56.766640
v 14.664597 47.542595 56.766640
v 13.747929 45.542595 56.766640
v 11.664597 44.292595 56.766640
v 11.664597 45.542595 56.766640
v 26.664597 44.292595 56.766640
v 26.664597 44.292591 76.766640
v 11.664597 44.292591 78.766640
v 11.664597 44.292595 54.766640
v 17.664597 47.542595 56.766640
v 17.664597 47.542591 76.766640
v 14.664597 45.542595 56.766640
v 14.664597 45.542591 76.766640
v 20.831261 49.792595 56.766640
v 20.831261 49.792595 54.766640
v 20.831261 49.792591 76.766640
v 20.831261 49.792591 78.766640
v 26.664597 46.792591 76.766640
v 26.664597 46.792595 56.766640
vn 1.0000 -0.0000 -0.0000
vn -0.0000 -0.0000 1.0000
vn -0.0000 -0.0000 -1.0000
vn -1.0000 -0.0000 -0.0000
vn -0.0000 -1.0000 -0.0000
vn -0.0000 1.0000 -0.0000
vn -0.5145 0.8575 -0.0000
s 0
f 1//1 2//1 3//1
f 4//1 5//1 6//1
f 6//1 5//1 7//1
f 8//1 9//1 10//1
f 11//1 6//1 12//1
f 12//1 6//1 7//1
f 12//1 7//1 10//1
f 10//1 7//1 1//1
f 10//1 1//1 8//1
f 8//1 1//1 3//1
f 13//2 14//2 15//2
f 16//2 17//2 18//2
f 19//2 20//2 21//2
f 22//3 23//3 24//3
f 25//3 26//3 27//3
f 28//3 29//3 30//3
f 21//4 20//4 29//4
f 29//4 20//4 30//4
f 31//5 32//5 11//5
f 11//5 32//5 9//5
f 8//5 33//5 9//5
f 9//5 33//5 21//5
f 9//5 21//5 11//5
f 11//5 21//5 29//5
f 11//5 29//5 6//5
f 6//5 29//5 34//5
f 24//6 14//6 22//6
f 22//6 14//6 13//6
f 22//6 13//6 7//6
f 7//6 13//6 1//6
f 35//4 36//4 23//4
f 23//4 36//4 15//4
f 23//4 15//4 24//4
f 24//4 15//4 14//4
f 27//6 17//6 25//6
f 25//6 17//6 16//6
f 25//6 16//6 35//6
f 35//6 16//6 36//6
f 37//4 38//4 26//4
f 26//4 38//4 18//4
f 26//4 18//4 27//4
f 27//4 18//4 17//4
f 30//6 20//6 28//6
f 28//6 20//6 19//6
f 28//6 19//6 37//6
f 37//6 19//6 38//6
f 37//2 26//2 28//2
f 35//2 23//2 25//2
f 22//2 7//2 39//2
f 39//2 7//2 5//2
f 29//7 28//7 34//7
f 34//7 28//7 26//7
f 34//7 26//7 40//7
f 40//7 26//7 25//7
f 25//7 23//7 40//7
f 40//7 23//7 22//7
f 40//7 22//7 39//7
f 4//3 6//3 40//3
f 40//3 6//3 34//3
f 1//3 13//3 2//3
f 2//3 13//3 41//3
f 15//3 36//3 16//3
f 19//7 21//7 33//7
f 42//7 41//7 13//7
f 13//7 15//7 42//7
f 42//7 15//7 16//7
f 42//7 16//7 33//7
f 33//7 16//7 18//7
f 33//7 18//7 19//7
f 42//2 33//2 3//2
f 3//2 33//2 8//2
f 18//3 38//3 19//3
f 32//2 43//2 9//2
f 9//2 43//2 10//2
f 44//3 31//3 12//3
f 12//3 31//3 11//3
f 43//6 44//6 10//6
f 10//6 44//6 12//6
f 31//1 44//1 32//1
f 32//1 44//1 43//1
f 42//6 3//6 41//6
f 41//6 3//6 2//6
f 4//6 40//6 5//6
f 5//6 40//6 39//6
