# Blender 3.6.11
# www.blender.org
mtllib kame_house-big_window.mtl
o KH_Big_Window-white
v -36.205822 84.592583 -15.615795
v -34.553963 86.592583 -16.743340
v -36.205818 66.092583 -15.615795
v -34.553959 64.092583 -16.743340
v -43.889664 66.092583 -10.370888
v -45.541527 64.092583 -9.243340
v -43.889664 84.592583 -10.370888
v -45.541527 86.592575 -9.243340
v -45.541527 84.592575 -7.243340
v -45.541523 66.092583 -7.243340
v -45.541527 66.092583 13.756659
v -45.541527 64.092583 15.756659
v -45.541527 84.592575 13.756659
v -45.541527 86.592575 15.756659
v -43.889664 84.592583 16.884201
v -43.889664 66.092583 16.884201
v -36.205818 66.092583 22.129112
v -34.553959 64.092583 23.256660
v -36.205822 84.592583 22.129112
v -34.553963 86.592583 23.256660
v -32.553959 64.092583 -16.743340
v -32.553959 64.092583 23.256660
v -36.553963 95.092583 -7.043702
v -34.553963 95.092583 -10.830391
v -38.541527 95.092583 -5.687013
v -40.541527 95.092583 -6.743340
v -38.541527 95.092583 12.200333
v -40.541527 95.092583 13.256660
v -36.553963 95.092583 13.557022
v -34.553963 95.092583 17.343712
v -32.553963 95.092583 17.343712
v -32.553963 95.092583 -10.830391
v -36.298717 93.358429 17.359100
v -39.847336 93.358429 14.936852
v -42.807159 88.326729 16.416763
v -36.298717 88.326729 20.859367
v -41.555565 93.368713 11.700409
v -41.555565 93.368713 -5.187089
v -44.527489 88.316444 -6.673051
v -44.527489 88.316444 13.186371
v -36.298717 93.358429 -10.845787
v -36.298714 88.326729 -14.346046
v -42.807163 88.326729 -9.903442
v -39.847336 93.358429 -8.423531
v -42.762119 66.092583 15.232346
v -42.762119 84.592583 15.232346
v -35.078278 84.592583 20.477257
v -35.078278 66.092583 20.477257
v -43.541523 66.092583 -7.243340
v -43.541527 84.592583 -7.243340
v -43.541527 84.592583 13.756660
v -43.541527 66.092583 13.756660
v -35.078278 66.092583 -13.963936
v -35.078278 84.592583 -13.963936
v -42.762123 84.592583 -8.719025
v -42.762119 66.092583 -8.719025
v -42.803616 87.302406 13.186371
v -42.803619 87.302406 -6.673051
v -39.831696 92.354668 -5.187089
v -39.831696 92.354668 11.700409
v -35.321053 87.330368 19.427078
v -41.829498 87.330368 14.984474
v -38.869675 92.362076 13.504570
v -35.321053 92.362076 15.926819
v -41.829498 87.330368 -8.471161
v -35.321049 87.330368 -12.913757
v -35.321053 92.362076 -9.413498
v -38.869675 92.362076 -6.991250
v -36.553963 93.092583 -7.043702
v -36.553963 93.092583 13.557022
v -38.541527 93.092583 12.200333
v -38.541527 93.092583 -5.687013
v -32.553959 86.592583 23.256660
v -32.553959 86.592583 -16.743340
v -32.553959 66.092583 20.477257
v -32.553959 86.592583 20.477257
v -32.553959 86.592583 -13.772330
v -32.553963 93.092583 15.685539
v -32.553963 93.092583 -9.172218
v -32.553959 86.592583 20.477257
v -32.553959 66.092583 -13.963936
vn -0.5638 -0.0000 -0.8259
vn -1.0000 -0.0000 -0.0000
vn -0.5638 -0.0000 0.8259
vn -0.0000 -1.0000 -0.0000
vn -0.0000 1.0000 -0.0000
vn -0.4888 0.4982 0.7161
vn -0.8619 0.5070 -0.0000
vn -0.4888 0.4982 -0.7161
vn 0.8259 -0.0000 0.5638
vn -0.8259 -0.0000 -0.5638
vn 1.0000 -0.0000 -0.0000
vn 0.8338 -0.3245 -0.4467
vn -0.0000 -0.0000 1.0000
vn -0.0000 -0.0000 -1.0000
vn 0.8374 -0.3211 -0.4423
vn 0.8338 -0.3245 0.4467
vn -0.8259 -0.0000 0.5638
vn 0.8259 -0.0000 -0.5638
vn 0.8374 -0.3211 0.4423
vn 0.5579 -0.7760 -0.2943
vn 0.5070 0.8619 -0.0000
vn -0.1246 -0.2118 0.9693
vn -0.5070 -0.8619 -0.0000
vn -0.1246 -0.2118 -0.9693
vn 0.2824 -0.8655 0.4137
vn 0.5579 -0.7760 0.2943
vn 0.2809 0.8671 -0.4115
vn 0.7208 -0.2318 0.6533
vn -0.2809 -0.8671 0.4115
vn -0.8724 -0.2792 -0.4013
vn 0.2824 -0.8655 -0.4137
vn 0.8842 -0.0000 -0.4670
vn 0.2809 0.8671 0.4115
vn -0.8724 -0.2792 0.4013
vn -0.2809 -0.8671 -0.4115
vn 0.7208 -0.2318 -0.6533
vn 0.8842 -0.0000 0.4670
vn 0.5447 -0.2578 0.7980
vn 0.5638 -0.0000 -0.8259
vn 0.5638 -0.0000 0.8259
vn 0.9649 -0.2627 -0.0000
vn 0.5447 -0.2578 -0.7980
vn -0.0000 0.5711 -0.8209
vn -0.0000 0.5711 0.8209
vn 0.7382 -0.5494 0.3914
vn 0.4965 -0.8680 -0.0000
vn 0.7382 -0.5494 -0.3914
vn 0.0789 -0.5693 0.8183
vn 0.1457 -0.5870 -0.7963
vn 0.1963 -0.3360 0.9212
vn 0.2043 -0.9005 -0.3839
vn 0.2043 -0.9005 0.3839
vn -0.0757 -0.0000 0.9971
vn 0.0988 -0.5749 0.8123
vn 0.0789 -0.5693 -0.8183
vn 0.2582 -0.3259 -0.9094
vn -0.0000 -0.0093 1.0000
s 0
usemtl white
f 1//1 2//1 3//1
f 3//1 2//1 4//1
f 3//1 4//1 5//1
f 5//1 4//1 6//1
f 5//1 6//1 7//1
f 7//1 6//1 8//1
f 7//1 8//1 1//1
f 1//1 8//1 2//1
f 9//2 8//2 10//2
f 10//2 8//2 6//2
f 10//2 6//2 11//2
f 11//2 6//2 12//2
f 11//2 12//2 13//2
f 13//2 12//2 14//2
f 13//2 14//2 9//2
f 9//2 14//2 8//2
f 15//3 14//3 16//3
f 16//3 14//3 12//3
f 16//3 12//3 17//3
f 17//3 12//3 18//3
f 17//3 18//3 19//3
f 19//3 18//3 20//3
f 19//3 20//3 15//3
f 15//3 20//3 14//3
f 21//4 22//4 18//4
f 12//4 6//4 18//4
f 18//4 6//4 4//4
f 18//4 4//4 21//4
f 23//5 24//5 25//5
f 25//5 24//5 26//5
f 25//5 26//5 27//5
f 27//5 26//5 28//5
f 27//5 28//5 29//5
f 28//5 30//5 29//5
f 29//5 30//5 31//5
f 29//5 31//5 23//5
f 23//5 31//5 32//5
f 23//5 32//5 24//5
f 33//6 30//6 34//6
f 34//6 30//6 28//6
f 34//6 28//6 35//6
f 35//6 28//6 14//6
f 35//6 14//6 36//6
f 36//6 14//6 20//6
f 36//6 20//6 33//6
f 33//6 20//6 30//6
f 37//7 28//7 38//7
f 38//7 28//7 26//7
f 38//7 26//7 39//7
f 39//7 26//7 8//7
f 39//7 8//7 40//7
f 40//7 8//7 14//7
f 40//7 14//7 37//7
f 37//7 14//7 28//7
f 41//8 24//8 42//8
f 42//8 24//8 2//8
f 42//8 2//8 43//8
f 43//8 2//8 8//8
f 43//8 8//8 44//8
f 44//8 8//8 26//8
f 44//8 26//8 41//8
f 41//8 26//8 24//8
f 45//9 46//9 16//9
f 16//9 46//9 15//9
f 46//4 47//4 15//4
f 15//4 47//4 19//4
f 47//10 48//10 19//10
f 19//10 48//10 17//10
f 48//5 45//5 17//5
f 17//5 45//5 16//5
f 21//11 75//11 22//11
f 46//12 57//12 62//12
f 49//13 50//13 10//13
f 10//13 50//13 9//13
f 50//4 51//4 9//4
f 9//4 51//4 13//4
f 51//14 52//14 13//14
f 13//14 52//14 11//14
f 52//5 49//5 11//5
f 11//5 49//5 10//5
f 51//15 57//15 46//15
f 65//16 58//16 55//16
f 53//17 54//17 3//17
f 3//17 54//17 1//17
f 54//4 55//4 1//4
f 1//4 55//4 7//4
f 55//18 56//18 7//18
f 7//18 56//18 5//18
f 56//5 53//5 5//5
f 5//5 53//5 3//5
f 50//19 55//19 58//19
f 63//20 60//20 71//20
f 57//21 58//21 40//21
f 40//21 58//21 39//21
f 58//22 59//22 39//22
f 39//22 59//22 38//22
f 59//23 60//23 38//23
f 38//23 60//23 37//23
f 60//24 57//24 37//24
f 37//24 57//24 40//24
f 68//25 67//25 72//25
f 72//26 59//26 68//26
f 61//27 62//27 36//27
f 36//27 62//27 35//27
f 62//28 63//28 35//28
f 35//28 63//28 34//28
f 63//29 64//29 34//29
f 34//29 64//29 33//29
f 64//30 61//30 33//30
f 33//30 61//30 36//30
f 70//31 63//31 71//31
f 52//32 46//32 45//32
f 65//33 66//33 43//33
f 43//33 66//33 42//33
f 66//34 67//34 42//34
f 42//34 67//34 41//34
f 67//35 68//35 41//35
f 41//35 68//35 44//35
f 68//36 65//36 44//36
f 44//36 65//36 43//36
f 56//37 50//37 49//37
f 55//38 66//38 65//38
f 69//2 70//2 23//2
f 23//2 70//2 29//2
f 70//39 71//39 29//39
f 29//39 71//39 27//39
f 71//11 72//11 27//11
f 27//11 72//11 25//11
f 69//40 25//40 72//40
f 25//40 69//40 23//40
f 51//41 58//41 57//41
f 46//42 61//42 47//42
f 22//13 73//13 18//13
f 18//13 73//13 20//13
f 74//14 21//14 2//14
f 2//14 21//14 4//14
f 32//43 74//43 24//43
f 24//43 74//43 2//43
f 73//44 31//44 20//44
f 20//44 31//44 30//44
f 59//45 65//45 68//45
f 72//46 60//46 59//46
f 67//25 69//25 72//25
f 60//47 62//47 57//47
f 73//11 75//11 76//11
f 74//11 81//11 21//11
f 31//11 79//11 32//11
f 32//11 77//11 74//11
f 31//11 80//11 78//11
f 79//4 70//4 69//4
f 66//48 79//48 67//48
f 61//49 78//49 80//49
f 47//14 75//14 48//14
f 75//5 49//5 52//5
f 53//5 56//5 49//5
f 21//11 81//11 75//11
f 54//50 77//50 66//50
f 47//2 80//2 76//2
f 64//51 70//51 78//51
f 75//5 45//5 48//5
f 67//52 79//52 69//52
f 54//53 53//53 77//53
f 70//31 64//31 63//31
f 52//32 51//32 46//32
f 56//37 55//37 50//37
f 55//38 54//38 66//38
f 51//41 50//41 58//41
f 46//42 62//42 61//42
f 59//45 58//45 65//45
f 72//46 71//46 60//46
f 60//47 63//47 62//47
f 73//11 22//11 75//11
f 77//11 81//11 74//11
f 31//11 78//11 79//11
f 32//11 79//11 77//11
f 31//11 73//11 80//11
f 79//4 78//4 70//4
f 66//54 77//54 79//54
f 61//55 64//55 78//55
f 47//14 76//14 75//14
f 75//5 53//5 49//5
f 47//56 61//56 80//56
f 75//5 52//5 45//5
f 53//5 75//5 81//5
f 53//57 81//57 77//57
