# Blender 3.6.11
# www.blender.org
mtllib kame_house-small_window.mtl
o KH_Small_window-x2-white
v 34.509686 79.292595 -76.923401
v 19.909687 79.292595 -76.923401
v 34.509686 79.292595 -72.081291
v 19.909687 79.292595 -72.081291
v 34.509686 64.692596 -76.923401
v 34.509686 64.692596 -72.081291
v 19.909687 64.692596 -76.923401
v 19.909687 64.692596 -72.081284
v 33.259686 78.042603 -76.923401
v 33.259686 65.942596 -76.923401
v 21.159687 65.942596 -76.923401
v 21.159687 78.042603 -76.923401
v 21.159687 65.942596 -72.081291
v 21.159687 78.042603 -72.081291
v 33.259686 78.042603 -72.081291
v 33.259686 65.942596 -72.081291
vn -0.0000 1.0000 -0.0000
vn 1.0000 -0.0000 -0.0000
vn -0.0000 -1.0000 -0.0000
vn -1.0000 -0.0000 -0.0000
vn -0.0000 -0.0000 1.0000
vn -0.0000 -0.0000 -1.0000
s 0
usemtl white
f 1//1 2//1 3//1
f 3//1 2//1 4//1
f 5//2 1//2 6//2
f 6//2 1//2 3//2
f 7//3 5//3 8//3
f 8//3 5//3 6//3
f 2//4 7//4 4//4
f 4//4 7//4 8//4
f 3//5 16//5 6//5
f 8//5 16//5 13//5
f 9//6 1//6 10//6
f 10//6 1//6 5//6
f 10//6 5//6 11//6
f 11//6 5//6 7//6
f 11//6 7//6 12//6
f 12//6 7//6 2//6
f 12//6 2//6 9//6
f 9//6 2//6 1//6
f 11//2 12//2 13//2
f 13//2 12//2 14//2
f 12//3 9//3 14//3
f 14//3 9//3 15//3
f 9//4 10//4 15//4
f 15//4 10//4 16//4
f 10//1 11//1 16//1
f 16//1 11//1 13//1
f 4//5 15//5 3//5
f 13//5 4//5 8//5
f 3//5 15//5 16//5
f 8//5 6//5 16//5
f 4//5 14//5 15//5
f 13//5 14//5 4//5
