# Blender 3.6.11
# www.blender.org
mtllib kame_house-rear_base.mtl
o KH_Rear_base-white
v -12.399075 49.292603 -46.923401
v -12.399075 49.292603 -76.923401
v -12.399075 44.292603 -46.923401
v -12.399075 44.292603 -76.923401
v 42.600925 49.292603 -46.923401
v 42.600925 44.292603 -46.923401
v 42.600925 49.292603 -76.923401
v 42.600925 44.292603 -76.923401
v 15.100925 49.292603 -61.923401
vn -1.0000 -0.0000 -0.0000
vn -0.0000 -0.0000 1.0000
vn 1.0000 -0.0000 -0.0000
vn -0.0000 -0.0000 -1.0000
vn -0.0000 1.0000 -0.0000
vn -0.0000 -1.0000 -0.0000
s 0
usemtl white
f 1//1 2//1 3//1
f 3//1 2//1 4//1
f 5//2 1//2 6//2
f 6//2 1//2 3//2
f 7//3 5//3 8//3
f 8//3 5//3 6//3
f 2//4 7//4 4//4
f 4//4 7//4 8//4
f 9//5 7//5 2//5
f 9//5 2//5 1//5
f 9//5 1//5 5//5
f 9//5 5//5 7//5
f 8//6 6//6 4//6
f 4//6 6//6 3//6
