# Blender 3.6.11
# www.blender.org
mtllib kame_house-front_roof.mtl
o KH_Front_roof-red
v 22.005322 101.575951 53.414482
v 22.005322 88.937393 78.344704
v 22.005322 90.721260 79.249046
v 22.005322 103.738350 53.111111
v 22.005322 103.781776 52.824635
v 22.005322 103.278275 54.479671
v 22.005322 103.401741 54.217571
v 22.005322 103.509819 53.948723
v 22.005322 103.828636 50.426929
v 22.005322 101.592606 50.414520
v 22.005322 103.818542 52.246567
v 22.005322 103.808540 52.536140
v 22.005322 103.602150 53.674103
v 22.005322 103.678413 53.394562
v 62.005322 88.937393 78.344704
v 62.005322 101.575951 53.414482
v 62.005322 90.721260 79.249046
v 62.005322 103.278275 54.479671
v 62.005322 103.401741 54.217571
v 62.005322 101.592606 50.414520
v 62.005322 103.828636 50.426929
v 62.005322 103.818542 52.246567
v 62.005322 103.808540 52.536140
v 62.005322 103.781776 52.824635
v 62.005322 103.738350 53.111111
v 62.005322 103.678413 53.394562
v 62.005322 103.602150 53.674103
v 62.005322 103.509819 53.948723
vn -1.0000 -0.0000 -0.0000
vn -0.0000 -0.8919 -0.4522
vn -0.0000 -0.4522 0.8919
vn -0.0000 0.8919 0.4522
vn 1.0000 -0.0000 -0.0000
vn -0.0000 1.0000 0.0055
vn -0.0000 -1.0000 -0.0056
vn -0.0000 0.0056 -1.0000
vn -0.0000 0.9994 0.0345
vn -0.0000 0.9957 0.0924
vn -0.0000 0.9887 0.1499
vn -0.0000 0.9784 0.2069
vn -0.0000 0.9647 0.2632
vn -0.0000 0.9479 0.3187
vn -0.0000 0.9278 0.3730
vn -0.0000 0.9047 0.4261
s 0
usemtl rojo
f 1//1 2//1 3//1
f 4//1 5//1 1//1
f 3//1 6//1 1//1
f 1//1 6//1 7//1
f 1//1 7//1 8//1
f 9//1 10//1 11//1
f 11//1 10//1 1//1
f 11//1 1//1 12//1
f 12//1 1//1 5//1
f 8//1 13//1 1//1
f 1//1 13//1 14//1
f 1//1 14//1 4//1
f 15//2 2//2 16//2
f 16//2 2//2 1//2
f 17//3 3//3 15//3
f 15//3 3//3 2//3
f 6//4 3//4 18//4
f 18//4 3//4 17//4
f 17//5 15//5 18//5
f 18//5 15//5 16//5
f 18//5 16//5 19//5
f 20//5 21//5 16//5
f 16//5 21//5 22//5
f 16//5 22//5 23//5
f 23//5 24//5 16//5
f 16//5 24//5 25//5
f 16//5 25//5 26//5
f 26//5 27//5 16//5
f 16//5 27//5 28//5
f 16//5 28//5 19//5
f 22//6 21//6 11//6
f 11//6 21//6 9//6
f 10//7 20//7 1//7
f 1//7 20//7 16//7
f 21//8 20//8 9//8
f 9//8 20//8 10//8
f 22//9 11//9 12//9
f 22//9 12//9 23//9
f 23//10 12//10 5//10
f 23//10 5//10 24//10
f 24//11 5//11 4//11
f 24//11 4//11 25//11
f 25//12 4//12 14//12
f 25//12 14//12 26//12
f 26//13 14//13 13//13
f 26//13 13//13 27//13
f 27//14 13//14 8//14
f 27//14 8//14 28//14
f 28//15 8//15 7//15
f 28//15 7//15 19//15
f 19//16 7//16 6//16
f 19//16 6//16 18//16
