# Blender 3.6.11
# www.blender.org
mtllib kame_house-blind.mtl
o KH_Blinds-x4-white
v -7.894688 70.692596 54.414528
v -19.694689 70.692596 54.414528
v -7.894685 89.292603 54.414528
v -19.694687 89.292603 54.414528
v -19.694687 89.292603 55.414528
v -7.894685 89.292603 55.414528
v -8.894688 86.783508 55.414528
v -8.894688 85.274414 55.414528
v -8.894688 83.765327 55.414528
v -8.894688 82.256233 55.414528
v -18.694687 73.201691 55.414528
v -18.694687 74.710785 55.414528
v -19.694689 70.692596 55.414528
v -18.694687 76.219879 55.414528
v -8.894689 80.747147 55.414528
v -8.894689 79.238052 55.414528
v -7.894688 70.692596 55.414528
v -8.894689 77.728966 55.414528
v -8.894689 76.219872 55.414528
v -8.894690 74.710777 55.414528
v -18.694685 80.747147 55.414528
v -18.694687 79.238052 55.414528
v -18.694687 77.728966 55.414528
v -8.894690 73.201691 55.414528
v -8.894690 71.692596 55.414528
v -18.694687 71.692596 55.414528
v -18.694685 82.256233 55.414528
v -18.694685 83.765327 55.414528
v -18.694685 85.274414 55.414528
v -18.694685 86.783508 55.414528
v -18.694685 88.292595 55.414528
v -8.894687 88.292595 55.414528
v -8.894687 88.292595 54.914528
v -18.694685 88.292595 54.914528
v -8.894688 86.783508 54.914528
v -18.694685 86.783508 54.914528
v -8.894688 85.274414 54.914528
v -18.694685 85.274414 54.914528
v -8.894688 83.765327 54.914528
v -18.694685 83.765327 54.914528
v -8.894688 82.256233 54.914528
v -18.694685 82.256233 54.914528
v -8.894689 80.747147 54.914528
v -18.694685 80.747147 54.914528
v -8.894689 79.238052 54.914528
v -18.694687 79.238052 54.914528
v -8.894689 77.728966 54.914528
v -18.694687 77.728966 54.914528
v -8.894689 76.219872 54.914528
v -18.694687 76.219879 54.914528
v -8.894690 74.710777 54.914528
v -18.694687 74.710785 54.914528
v -8.894690 73.201691 54.914528
v -18.694687 73.201691 54.914528
vn -0.0000 -0.0000 -1.0000
vn -0.0000 1.0000 -0.0000
vn -0.0000 -0.0000 1.0000
vn -0.0000 -1.0000 -0.0000
vn -0.0000 0.3145 0.9493
vn -1.0000 -0.0000 -0.0000
vn 1.0000 -0.0000 -0.0000
s 0
usemtl white
f 1//1 2//1 3//1
f 3//1 2//1 4//1
f 5//2 6//2 4//2
f 4//2 6//2 3//2
f 7//3 8//3 6//3
f 6//3 8//3 9//3
f 6//3 9//3 10//3
f 11//3 12//3 13//3
f 13//3 12//3 14//3
f 10//3 15//3 6//3
f 6//3 15//3 16//3
f 6//3 16//3 17//3
f 16//3 18//3 17//3
f 17//3 18//3 19//3
f 17//3 19//3 20//3
f 21//3 5//3 22//3
f 22//3 5//3 13//3
f 22//3 13//3 23//3
f 23//3 13//3 14//3
f 20//3 24//3 17//3
f 17//3 24//3 25//3
f 17//3 25//3 13//3
f 13//3 25//3 26//3
f 13//3 26//3 11//3
f 21//3 27//3 5//3
f 5//3 27//3 28//3
f 5//3 28//3 29//3
f 29//3 30//3 5//3
f 5//3 30//3 31//3
f 5//3 31//3 6//3
f 6//3 31//3 32//3
f 6//3 32//3 7//3
f 33//4 32//4 34//4
f 34//4 32//4 31//4
f 7//5 33//5 30//5
f 30//5 33//5 34//5
f 35//4 7//4 36//4
f 36//4 7//4 30//4
f 8//5 35//5 29//5
f 29//5 35//5 36//5
f 37//4 8//4 38//4
f 38//4 8//4 29//4
f 9//5 37//5 28//5
f 28//5 37//5 38//5
f 39//4 9//4 40//4
f 40//4 9//4 28//4
f 10//5 39//5 27//5
f 27//5 39//5 40//5
f 41//4 10//4 42//4
f 42//4 10//4 27//4
f 15//5 41//5 21//5
f 21//5 41//5 42//5
f 43//4 15//4 44//4
f 44//4 15//4 21//4
f 16//5 43//5 22//5
f 22//5 43//5 44//5
f 45//4 16//4 46//4
f 46//4 16//4 22//4
f 18//5 45//5 23//5
f 23//5 45//5 46//5
f 47//4 18//4 48//4
f 48//4 18//4 23//4
f 19//5 47//5 14//5
f 14//5 47//5 48//5
f 49//4 19//4 50//4
f 50//4 19//4 14//4
f 20//5 49//5 12//5
f 12//5 49//5 50//5
f 51//4 20//4 52//4
f 52//4 20//4 12//4
f 24//5 51//5 11//5
f 11//5 51//5 52//5
f 53//4 24//4 54//4
f 54//4 24//4 11//4
f 25//5 53//5 26//5
f 26//5 53//5 54//5
f 33//6 7//6 32//6
f 7//6 35//6 8//6
f 8//6 37//6 9//6
f 9//6 39//6 10//6
f 10//6 41//6 15//6
f 15//6 43//6 16//6
f 16//6 45//6 18//6
f 18//6 47//6 19//6
f 19//6 49//6 20//6
f 20//6 51//6 24//6
f 24//6 53//6 25//6
f 30//7 34//7 31//7
f 36//7 30//7 29//7
f 38//7 29//7 28//7
f 40//7 28//7 27//7
f 42//7 27//7 21//7
f 44//7 21//7 22//7
f 46//7 22//7 23//7
f 48//7 23//7 14//7
f 50//7 14//7 12//7
f 52//7 12//7 11//7
f 54//7 11//7 26//7
f 13//6 5//6 2//6
f 2//6 5//6 4//6
f 17//4 13//4 1//4
f 1//4 13//4 2//4
f 6//7 17//7 3//7
f 3//7 17//7 1//7
