# Blender 3.6.11
# www.blender.org
mtllib kame_house-entrance_base.mtl
o KH_Entrance_base-white
v 56.764595 51.292595 74.961090
v 60.664597 51.292595 74.961090
v 62.464600 51.292595 53.766655
v 26.164589 51.292595 78.861099
v 22.264595 51.292595 78.861099
v 20.464600 51.292595 79.766663
v 22.264595 51.292595 74.961090
v 20.464600 51.292595 53.766655
v 26.164589 51.292595 74.961090
v 62.464600 51.292595 79.766663
v 60.664597 51.292595 78.861099
v 56.764595 51.292595 78.861099
v 62.464600 50.292595 53.766655
v 62.464600 50.292595 79.766663
v 21.464592 50.292595 53.766655
v 20.464600 50.292595 53.766655
v 30.964600 46.992596 53.766655
v 30.964600 44.292595 53.766655
v 21.464592 44.292595 53.766655
v 61.464592 50.292595 53.766655
v 55.964600 46.992596 53.766655
v 55.964600 44.292595 53.766655
v 61.464592 44.292595 53.766655
v 20.464600 50.292595 79.766663
v 61.464592 50.292595 78.766647
v 21.464592 50.292595 78.766647
v 21.464592 44.292595 75.966660
v 21.464592 44.292595 78.766647
v 21.464592 46.992596 75.966660
v 21.464592 46.992596 55.566662
v 21.464592 44.292595 55.566662
v 61.464592 44.292595 78.766647
v 26.664597 44.292595 75.966660
v 26.664597 44.292595 55.566662
v 30.964600 44.292595 59.766655
v 55.964600 44.292595 59.766655
v 26.664597 46.992596 75.966660
v 26.664597 46.992596 55.566662
v 30.964600 46.992596 59.766655
v 55.964600 46.992596 59.766655
v 26.164589 50.792595 74.961090
v 26.164589 50.792595 78.861099
v 22.264595 50.792595 78.861099
v 22.264595 50.792595 74.961090
v 56.764595 50.792595 78.861099
v 56.764595 50.792595 74.961090
v 60.664597 50.792595 74.961090
v 60.664597 50.792595 78.861099
vn -0.0000 1.0000 -0.0000
vn 1.0000 -0.0000 -0.0000
vn -0.0000 -0.0000 -1.0000
vn -1.0000 -0.0000 -0.0000
vn -0.0000 -0.0000 1.0000
vn -0.0000 -1.0000 -0.0000
s 0
usemtl white
f 1//1 2//1 3//1
f 4//1 5//1 6//1
f 6//1 5//1 7//1
f 6//1 7//1 8//1
f 8//1 7//1 9//1
f 3//1 2//1 10//1
f 10//1 2//1 11//1
f 10//1 11//1 12//1
f 6//1 10//1 4//1
f 4//1 10//1 12//1
f 4//1 12//1 9//1
f 9//1 12//1 1//1
f 9//1 1//1 8//1
f 8//1 1//1 3//1
f 3//2 10//2 13//2
f 13//2 10//2 14//2
f 15//3 16//3 8//3
f 17//3 18//3 19//3
f 8//3 3//3 20//3
f 20//3 3//3 13//3
f 19//3 15//3 17//3
f 17//3 15//3 8//3
f 17//3 8//3 21//3
f 21//3 8//3 20//3
f 21//3 20//3 22//3
f 22//3 20//3 23//3
f 6//4 8//4 24//4
f 24//4 8//4 16//4
f 10//5 6//5 14//5
f 14//5 6//5 24//5
f 20//6 13//6 25//6
f 25//6 13//6 14//6
f 25//6 14//6 26//6
f 26//6 14//6 24//6
f 26//6 24//6 15//6
f 15//6 24//6 16//6
f 27//4 28//4 29//4
f 29//4 28//4 26//4
f 29//4 26//4 30//4
f 30//4 26//4 15//4
f 30//4 15//4 31//4
f 31//4 15//4 19//4
f 32//6 28//6 33//6
f 33//6 28//6 27//6
f 31//6 19//6 34//6
f 34//6 19//6 18//6
f 34//6 18//6 35//6
f 22//6 23//6 36//6
f 36//6 23//6 32//6
f 36//6 32//6 35//6
f 35//6 32//6 33//6
f 35//6 33//6 34//6
f 20//2 25//2 23//2
f 23//2 25//2 32//2
f 25//5 26//5 32//5
f 32//5 26//5 28//5
f 29//3 37//3 27//3
f 27//3 37//3 33//3
f 37//4 38//4 33//4
f 33//4 38//4 34//4
f 38//5 30//5 34//5
f 34//5 30//5 31//5
f 30//6 38//6 29//6
f 29//6 38//6 37//6
f 17//2 39//2 18//2
f 18//2 39//2 35//2
f 39//3 40//3 35//3
f 35//3 40//3 36//3
f 40//4 21//4 36//4
f 36//4 21//4 22//4
f 40//6 39//6 21//6
f 21//6 39//6 17//6
f 41//4 42//4 9//4
f 9//4 42//4 4//4
f 42//3 43//3 4//3
f 4//3 43//3 5//3
f 43//2 44//2 5//2
f 5//2 44//2 7//2
f 44//5 41//5 7//5
f 7//5 41//5 9//5
f 44//1 43//1 41//1
f 41//1 43//1 42//1
f 45//2 46//2 12//2
f 12//2 46//2 1//2
f 46//5 47//5 1//5
f 1//5 47//5 2//5
f 47//4 48//4 2//4
f 2//4 48//4 11//4
f 48//3 45//3 11//3
f 11//3 45//3 12//3
f 48//1 47//1 45//1
f 45//1 47//1 46//1
