# Blender 3.6.11
# www.blender.org
mtllib kame_house-roof_b.mtl
o KH_Roof_B-red
v 65.929871 102.026619 55.923447
v 58.114750 110.504082 18.656647
v 58.328697 110.831436 -11.740826
v 55.744125 112.874176 18.665482
v 14.354717 153.590195 56.115738
v 55.958073 113.201538 -11.731991
v 15.093668 154.720840 -48.875565
v 66.668816 103.157280 -49.067856
v 14.417791 157.768951 56.161186
v 68.050858 104.147942 55.961220
v 68.789810 105.278603 -49.030083
v 15.156742 158.899597 -48.830120
v 58.363922 113.165039 -11.715450
v 58.149975 112.837692 18.682030
vn -0.7070 -0.7071 -0.0126
vn -0.0070 -0.0108 0.9999
vn 0.0070 0.0108 -0.9999
vn 0.7070 0.7071 0.0126
vn 0.7072 -0.7070 -0.0026
vn -0.9999 0.0152 -0.0069
vn -0.0151 -0.9998 -0.0109
s 0
usemtl rojo
f 1//1 2//1 3//1
f 2//1 1//1 4//1
f 4//1 1//1 5//1
f 4//1 5//1 6//1
f 6//1 5//1 7//1
f 6//1 7//1 3//1
f 3//1 7//1 8//1
f 3//1 8//1 1//1
f 5//2 1//2 9//2
f 9//2 1//2 10//2
f 11//3 8//3 12//3
f 12//3 8//3 7//3
f 10//4 11//4 9//4
f 9//4 11//4 12//4
f 10//5 1//5 11//5
f 11//5 1//5 8//5
f 9//6 12//6 5//6
f 5//6 12//6 7//6
f 13//6 3//6 14//6
f 14//6 3//6 2//6
f 6//7 13//7 4//7
f 4//7 13//7 14//7
f 13//2 6//2 3//2
f 2//3 4//3 14//3
