# Blender 3.6.11
# www.blender.org
mtllib kame_house-slide_wall_b.mtl
o KH_Side_wall_B-pink
v 65.174484 87.292595 53.424526
v 64.174484 87.292595 52.414532
v 65.174484 87.292595 15.566669
v 64.174484 87.292595 15.566669
v 65.174484 82.542603 53.424526
v 64.174484 82.542603 52.414532
v 65.174484 82.542603 15.566669
v 64.174477 82.542603 15.566669
v 65.174484 77.792603 53.424526
v 64.174484 77.792603 52.414532
v 65.174484 77.792603 15.566669
v 64.174477 77.792603 15.566669
v 65.174484 73.042603 53.424526
v 64.174484 73.042603 52.414532
v 65.174484 73.042603 15.566669
v 64.174477 73.042603 15.566669
v 64.963959 69.292603 15.566669
v 65.174484 68.292603 -47.291203
v 64.174484 73.042603 -46.281200
v 64.174484 73.042603 -9.433331
v 64.963959 69.292603 -9.433331
v 65.174484 68.292603 53.424526
v 64.753441 89.292595 -9.433331
v 65.174484 87.292595 -9.433331
v 65.174484 87.292595 -47.291203
v 64.174484 92.042603 52.414532
v 64.753433 89.292595 15.566669
v 64.174484 92.042603 -46.281200
v 59.174488 112.112602 18.066669
v 57.174480 114.052597 18.066669
v 57.174484 114.052597 45.344532
v 65.174484 106.292595 -47.291203
v 57.174488 114.052597 -39.211201
v 57.174488 114.052597 -11.933331
v 59.174496 112.112602 -11.933331
v 65.174484 106.292595 53.424526
v 59.174492 47.492603 -41.373341
v 57.174484 47.492603 -39.353336
v 59.174492 49.292603 -41.373341
v 57.174484 49.292603 -39.353336
v 57.174480 49.292603 45.486668
v 57.174480 47.492603 45.486668
v 59.174488 49.292603 47.506672
v 59.174488 47.492603 47.506672
v 59.174488 49.292603 47.364536
v 59.174492 49.292603 -41.231205
v 65.174484 49.292603 53.424526
v 65.174484 49.292603 -47.291203
v 65.174484 92.042603 53.424526
v 65.174484 92.042603 -47.291203
v 64.174484 87.292595 -9.433331
v 64.174484 87.292595 -46.281200
v 64.174484 82.542603 -9.433331
v 64.174484 82.542603 -46.281200
v 65.174484 82.542603 -9.433331
v 65.174484 82.542603 -47.291203
v 64.174484 77.792603 -9.433331
v 64.174484 77.792603 -46.281200
v 65.174484 77.792603 -9.433331
v 65.174484 77.792603 -47.291203
v 65.174484 73.042603 -9.433331
v 65.174484 73.042603 -47.291203
v 64.174484 68.292603 52.414532
v 64.174484 68.292603 -46.281200
v 64.174484 63.542603 52.414532
v 64.174484 63.542603 -46.281200
v 65.174484 63.542603 53.424526
v 65.174484 63.542603 -47.291203
v 64.174484 58.792603 52.414532
v 64.174484 58.792603 -46.281200
v 65.174484 58.792603 53.424526
v 65.174484 58.792603 -47.291203
v 64.174484 54.042603 52.414532
v 64.174484 54.042603 -46.281200
v 65.174484 54.042603 53.424526
v 65.174484 54.042603 -47.291203
v 65.174484 101.542603 53.424526
v 65.174484 101.542603 -47.291203
v 64.174484 106.292595 52.414532
v 64.174484 106.292595 -46.281200
v 65.174484 96.792603 53.424526
v 65.174484 96.792603 -47.291203
v 64.174484 101.542603 52.414532
v 64.174484 101.542603 -46.281200
v 64.174484 96.792603 52.414532
v 64.174484 96.792603 -46.281200
v 57.174484 49.292603 -39.211201
v 57.174480 49.292603 45.344532
v 59.174496 114.052597 -11.933331
v 59.174488 114.052597 18.066669
v 57.174484 69.292603 -9.433331
v 57.174480 69.292603 15.566669
v 57.174480 89.292595 15.566669
v 57.174488 89.292595 -9.433331
vn -0.0000 -1.0000 -0.0000
vn 0.9785 0.2060 -0.0000
vn 0.9786 0.2060 -0.0000
vn 0.6963 0.7178 -0.0000
vn -0.7106 -0.0000 -0.7036
vn -0.7106 -0.0000 0.7036
vn -1.0000 -0.0000 -0.0000
vn 1.0000 -0.0000 -0.0000
vn -0.0000 1.0000 -0.0000
vn -0.0000 -0.0000 1.0000
vn -0.0000 -0.0000 -1.0000
s 0
usemtl pink
f 1//1 2//1 3//1
f 3//1 2//1 4//1
f 5//1 6//1 7//1
f 7//1 6//1 8//1
f 9//1 10//1 11//1
f 11//1 10//1 12//1
f 13//1 14//1 15//1
f 15//1 14//1 16//1
f 17//2 16//2 14//2
f 18//2 19//2 20//2
f 20//2 21//2 18//2
f 18//3 21//3 17//3
f 18//2 17//2 22//2
f 22//2 17//2 14//2
f 10//2 13//2 12//2
f 12//2 13//2 15//2
f 6//2 9//2 8//2
f 8//2 9//2 11//2
f 2//2 5//2 4//2
f 4//2 5//2 7//2
f 23//3 24//3 25//3
f 26//2 1//2 3//2
f 3//3 27//3 26//3
f 26//3 27//3 23//3
f 26//2 23//2 28//2
f 28//2 23//2 25//2
f 29//4 30//4 31//4
f 32//4 33//4 34//4
f 34//4 35//4 32//4
f 32//4 35//4 29//4
f 32//4 29//4 36//4
f 36//4 29//4 31//4
f 37//5 38//5 39//5
f 39//5 38//5 40//5
f 41//6 42//6 43//6
f 43//6 42//6 44//6
f 45//1 46//1 47//1
f 47//1 46//1 48//1
f 26//1 28//1 49//1
f 49//1 28//1 50//1
f 51//1 52//1 24//1
f 24//1 52//1 25//1
f 53//1 54//1 55//1
f 55//1 54//1 56//1
f 57//1 58//1 59//1
f 59//1 58//1 60//1
f 20//1 19//1 61//1
f 61//1 19//1 62//1
f 63//1 64//1 22//1
f 22//1 64//1 18//1
f 65//1 66//1 67//1
f 67//1 66//1 68//1
f 69//1 70//1 71//1
f 71//1 70//1 72//1
f 73//1 74//1 75//1
f 75//1 74//1 76//1
f 47//2 48//2 73//2
f 73//2 48//2 74//2
f 75//2 76//2 69//2
f 69//2 76//2 70//2
f 71//2 72//2 65//2
f 65//2 72//2 66//2
f 67//2 68//2 63//2
f 63//2 68//2 64//2
f 61//2 62//2 57//2
f 57//2 62//2 58//2
f 59//2 60//2 53//2
f 53//2 60//2 54//2
f 55//2 56//2 51//2
f 51//2 56//2 52//2
f 77//2 78//2 79//2
f 79//2 78//2 80//2
f 81//2 82//2 83//2
f 83//2 82//2 84//2
f 49//2 50//2 85//2
f 85//2 50//2 86//2
f 85//1 86//1 81//1
f 81//1 86//1 82//1
f 83//1 84//1 77//1
f 77//1 84//1 78//1
f 79//1 80//1 36//1
f 36//1 80//1 32//1
f 34//7 33//7 87//7
f 40//7 38//7 87//7
f 87//7 38//7 42//7
f 87//7 42//7 88//7
f 88//7 42//7 41//7
f 93//7 34//7 94//7
f 93//7 88//7 30//7
f 30//7 88//7 31//7
f 43//8 44//8 45//8
f 45//8 44//8 37//8
f 45//8 37//8 46//8
f 46//8 37//8 39//8
f 38//1 37//1 42//1
f 42//1 37//1 44//1
f 33//5 32//5 80//5
f 82//5 86//5 84//5
f 84//5 86//5 33//5
f 84//5 33//5 78//5
f 78//5 33//5 80//5
f 28//5 25//5 52//5
f 58//5 62//5 19//5
f 66//5 72//5 70//5
f 56//5 54//5 52//5
f 52//5 54//5 33//5
f 52//5 33//5 28//5
f 28//5 33//5 86//5
f 28//5 86//5 50//5
f 18//5 64//5 19//5
f 19//5 64//5 33//5
f 19//5 33//5 58//5
f 58//5 33//5 54//5
f 58//5 54//5 60//5
f 76//5 74//5 70//5
f 70//5 74//5 33//5
f 70//5 33//5 66//5
f 66//5 33//5 64//5
f 66//5 64//5 68//5
f 48//5 46//5 74//5
f 74//5 46//5 87//5
f 74//5 87//5 33//5
f 39//9 40//9 46//9
f 46//9 40//9 87//9
f 79//6 36//6 31//6
f 45//6 47//6 73//6
f 77//6 79//6 83//6
f 83//6 79//6 31//6
f 83//6 31//6 81//6
f 81//6 31//6 85//6
f 31//6 10//6 6//6
f 6//6 10//6 9//6
f 2//6 1//6 26//6
f 49//6 85//6 26//6
f 26//6 85//6 31//6
f 26//6 31//6 2//6
f 2//6 31//6 6//6
f 2//6 6//6 5//6
f 63//6 22//6 14//6
f 13//6 10//6 14//6
f 14//6 10//6 31//6
f 14//6 31//6 63//6
f 63//6 31//6 65//6
f 63//6 65//6 67//6
f 73//6 75//6 69//6
f 71//6 65//6 69//6
f 69//6 65//6 31//6
f 69//6 31//6 73//6
f 73//6 31//6 88//6
f 73//6 88//6 45//6
f 45//9 88//9 43//9
f 43//9 88//9 41//9
f 35//8 89//8 29//8
f 29//8 89//8 90//8
f 30//10 29//10 90//10
f 34//11 89//11 35//11
f 30//9 90//9 34//9
f 34//9 90//9 89//9
f 91//9 92//9 21//9
f 21//9 92//9 17//9
f 27//11 3//11 93//11
f 93//11 3//11 4//11
f 4//11 7//11 93//11
f 93//11 7//11 8//11
f 93//11 8//11 11//11
f 12//11 15//11 16//11
f 17//11 92//11 16//11
f 16//11 92//11 93//11
f 16//11 93//11 12//11
f 12//11 93//11 11//11
f 94//1 23//1 93//1
f 93//1 23//1 27//1
f 94//10 91//10 20//10
f 20//10 91//10 21//10
f 20//10 61//10 57//10
f 20//10 57//10 94//10
f 94//10 57//10 59//10
f 94//10 59//10 53//10
f 24//10 23//10 51//10
f 51//10 23//10 94//10
f 51//10 94//10 55//10
f 55//10 94//10 53//10
f 88//7 92//7 87//7
f 87//7 94//7 34//7
f 93//7 30//7 34//7
f 93//7 92//7 88//7
f 91//7 87//7 92//7
f 87//7 91//7 94//7
