# Blender 3.6.11
# www.blender.org
mtllib kame_house-door.mtl
o KH_Door-green
v 52.405315 88.892601 52.993477
v 52.405315 51.292603 52.993477
v 52.405315 88.892601 50.993484
v 52.405315 51.292603 50.993484
v 30.805309 88.892601 52.993477
v 30.805309 88.892601 50.993484
v 30.805309 51.292603 52.993477
v 30.805309 51.292603 50.993484
v 33.305309 63.792603 52.993477
v 49.905308 66.792603 52.993477
v 33.305309 66.792603 52.993477
v 33.305309 73.392609 52.993477
v 49.905308 63.792603 52.993477
v 49.905308 53.792603 52.993477
v 33.305309 53.792603 52.993477
v 49.905308 73.392609 52.993477
v 49.905308 76.392601 52.993477
v 33.305309 76.392601 52.993477
v 33.305309 86.392601 52.993477
v 49.905308 86.392601 52.993477
v 33.305309 76.392601 50.993484
v 33.305309 86.392601 50.993484
v 49.905308 86.392601 50.993484
v 49.905308 76.392601 50.993484
v 33.305309 53.792603 50.993484
v 33.305309 63.792603 50.993484
v 49.905308 63.792603 50.993484
v 49.905308 53.792603 50.993484
v 33.305309 66.792603 50.993484
v 33.305309 73.392609 50.993484
v 49.905308 73.392609 50.993484
v 49.905308 66.792603 50.993484
vn 1.0000 -0.0000 -0.0000
vn -0.0000 1.0000 -0.0000
vn -1.0000 -0.0000 -0.0000
vn -0.0000 -1.0000 -0.0000
vn -0.0000 -0.0000 1.0000
vn -0.0000 -0.0000 -1.0000
s 0
usemtl green
f 1//1 2//1 3//1
f 3//1 2//1 4//1
f 5//2 1//2 6//2
f 6//2 1//2 3//2
f 7//3 5//3 8//3
f 8//3 5//3 6//3
f 2//4 7//4 4//4
f 4//4 7//4 8//4
f 9//5 10//5 11//5
f 12//5 5//5 11//5
f 11//5 5//5 7//5
f 11//5 7//5 9//5
f 1//5 13//5 2//5
f 2//5 13//5 14//5
f 2//5 14//5 7//5
f 7//5 14//5 15//5
f 7//5 15//5 9//5
f 9//5 13//5 10//5
f 10//5 13//5 1//5
f 10//5 1//5 16//5
f 16//5 1//5 17//5
f 16//5 17//5 12//5
f 12//5 17//5 18//5
f 12//5 18//5 5//5
f 5//5 18//5 19//5
f 5//5 19//5 1//5
f 1//5 19//5 20//5
f 1//5 20//5 17//5
f 32//6 3//6 27//6
f 24//6 3//6 31//6
f 21//1 22//1 18//1
f 18//1 22//1 19//1
f 22//4 23//4 19//4
f 19//4 23//4 20//4
f 23//3 24//3 20//3
f 20//3 24//3 17//3
f 24//2 21//2 17//2
f 17//2 21//2 18//2
f 30//6 24//6 31//6
f 29//6 6//6 30//6
f 25//1 26//1 15//1
f 15//1 26//1 9//1
f 26//4 27//4 9//4
f 9//4 27//4 13//4
f 27//3 28//3 13//3
f 13//3 28//3 14//3
f 28//2 25//2 14//2
f 14//2 25//2 15//2
f 8//6 28//6 4//6
f 4//6 27//6 3//6
f 29//1 30//1 11//1
f 11//1 30//1 12//1
f 30//4 31//4 12//4
f 12//4 31//4 16//4
f 31//3 32//3 16//3
f 16//3 32//3 10//3
f 32//2 29//2 10//2
f 10//2 29//2 11//2
f 32//6 26//6 29//6
f 8//6 26//6 25//6
f 21//6 30//6 6//6
f 24//6 23//6 3//6
f 22//6 21//6 6//6
f 3//6 23//6 6//6
f 23//6 22//6 6//6
f 32//6 31//6 3//6
f 30//6 21//6 24//6
f 29//6 26//6 6//6
f 8//6 25//6 28//6
f 4//6 28//6 27//6
f 32//6 27//6 26//6
f 8//6 6//6 26//6
